<svg width="544" height="186" viewBox="0 0 544 186" fill="none" xmlns="http://www.w3.org/2000/svg">
<path d="M33.2897 115.127L56.0395 115.028L84.6887 156.114L58.9489 156.226L33.2897 115.127ZM10.3231 65.4366L32.2929 65.341L32.6892 156.34L10.7194 156.436L10.3231 65.4366ZM24.1839 83.9665L24.103 65.3766L43.4728 65.2923C51.2727 65.2583 57.7781 66.4867 62.989 68.9773C68.1999 71.468 72.1585 74.9608 74.8648 79.4557C77.5707 83.864 78.9364 89.0147 78.9621 94.908C78.9874 100.715 77.6665 105.877 74.9995 110.395C72.3321 114.827 68.4039 118.311 63.2149 120.847C58.0259 123.383 51.5314 124.668 43.7315 124.702L24.3617 124.786L24.2875 107.756L42.0974 107.679C45.044 107.666 47.5554 107.222 49.6316 106.346C51.7941 105.383 53.4349 104.033 54.554 102.294C55.6728 100.469 56.2267 98.3004 56.2157 95.7871C56.2048 93.2738 55.6322 91.1529 54.498 89.4245C53.3634 87.6094 51.7107 86.2299 49.5399 85.286C47.4558 84.3418 44.9404 83.8761 41.9938 83.8889L24.1839 83.9665ZM89.2984 126.193C89.2708 119.867 90.7202 114.357 93.6464 109.664C96.5727 104.971 100.63 101.314 105.819 98.6911C111.007 96.0685 116.852 94.743 123.352 94.7147C129.852 94.6864 135.664 95.9611 140.788 98.5388C146 101.116 150.089 104.738 153.056 109.405C156.11 114.072 157.65 119.569 157.678 125.895C157.705 132.135 156.212 137.602 153.199 142.295C150.273 146.988 146.215 150.646 141.027 153.268C135.925 155.891 130.124 157.216 123.624 157.244C117.124 157.272 111.268 155.998 106.057 153.421C100.846 150.843 96.7567 147.221 93.7897 142.554C90.8226 137.887 89.3255 132.433 89.2984 126.193ZM109.448 126.106C109.462 129.226 110.123 131.909 111.433 134.157C112.743 136.318 114.44 138.001 116.525 139.205C118.611 140.409 120.953 141.006 123.553 140.994C126.066 140.983 128.36 140.367 130.435 139.144C132.597 137.921 134.279 136.224 135.483 134.052C136.773 131.793 137.411 129.104 137.398 125.984C137.384 122.864 136.723 120.18 135.413 117.932C134.19 115.684 132.492 113.958 130.32 112.755C128.235 111.55 125.936 110.954 123.422 110.965C120.822 110.976 118.485 111.593 116.41 112.815C114.336 114.037 112.653 115.778 111.363 118.037C110.073 120.296 109.435 122.986 109.448 126.106ZM165.977 125.859C165.95 119.533 167.399 114.023 170.325 109.33C173.252 104.637 177.309 100.98 182.498 98.3571C187.686 95.7345 193.531 94.409 200.031 94.3807C206.53 94.3524 212.343 95.6271 217.467 98.2048C222.679 100.782 226.768 104.404 229.735 109.072C232.789 113.738 234.329 119.235 234.357 125.562C234.384 131.801 232.891 137.268 229.878 141.961C226.952 146.654 222.894 150.312 217.706 152.934C212.604 155.557 206.803 156.882 200.303 156.91C193.803 156.938 187.947 155.664 182.736 153.087C177.525 150.509 173.436 146.887 170.469 142.22C167.502 137.553 166.004 132.099 165.977 125.859ZM186.127 125.772C186.141 128.892 186.802 131.575 188.112 133.823C189.422 135.984 191.119 137.667 193.204 138.871C195.29 140.075 197.632 140.672 200.232 140.66C202.745 140.649 205.039 140.033 207.114 138.81C209.275 137.588 210.958 135.89 212.162 133.718C213.452 131.459 214.09 128.77 214.077 125.65C214.063 122.53 213.402 119.846 212.092 117.598C210.869 115.35 209.171 113.624 206.999 112.421C204.914 111.216 202.615 110.62 200.101 110.631C197.501 110.642 195.164 111.259 193.089 112.481C191.015 113.704 189.332 115.444 188.042 117.703C186.752 119.962 186.114 122.652 186.127 125.772Z" fill="#4681FF"/>
<path d="M337.388 116.533L337.556 155.012L317.796 155.098L317.637 118.699C317.621 115.059 317.003 112.331 315.782 110.517C314.647 108.615 312.736 107.67 310.049 107.682C308.316 107.689 306.758 108.129 305.375 109.002C304.078 109.788 303.044 111.006 302.271 112.656C301.585 114.305 301.247 116.343 301.257 118.77L301.416 155.17L281.656 155.256L281.498 118.856C281.482 115.216 280.863 112.489 279.642 110.674C278.507 108.772 276.596 107.827 273.91 107.839C272.176 107.847 270.618 108.287 269.235 109.159C267.939 109.945 266.904 111.163 266.131 112.813C265.445 114.463 265.107 116.501 265.118 118.928L265.276 155.327L246.296 155.41L246.036 95.6104L265.016 95.5277L265.054 104.368C266.687 101.154 268.929 98.6307 271.781 96.7983C274.72 94.9655 278.226 94.0402 282.299 94.0224C286.979 94.0021 290.71 94.8525 293.491 96.5737C296.271 98.2083 298.275 100.626 299.502 103.828C301.655 100.698 304.331 98.2599 307.531 96.5126C310.73 94.7653 314.366 93.8828 318.439 93.8651C323.119 93.8447 326.806 94.7386 329.501 96.5469C332.282 98.2681 334.286 100.816 335.514 104.191C336.742 107.565 337.367 111.679 337.388 116.533ZM351.408 72.6613C351.394 69.5413 352.51 67.0231 354.755 65.1066C356.999 63.1035 359.682 62.0951 362.802 62.0815C366.008 62.0676 368.699 63.0525 370.875 65.0364C373.136 66.9333 374.274 69.4417 374.287 72.5616C374.301 75.6816 373.186 78.2432 370.941 80.2463C368.783 82.249 366.101 83.2574 362.894 83.2714C359.774 83.2849 357.083 82.3 354.821 80.3165C352.559 78.333 351.421 75.7812 351.408 72.6613ZM353.456 95.1426L372.435 95.0599L372.696 154.859L353.716 154.942L353.456 95.1426ZM383.273 95.0127L424.093 94.8349L424.163 111.085L383.344 111.263L383.273 95.0127ZM421.784 72.0948C420.912 70.9719 419.955 70.1527 418.913 69.6373C417.957 69.1214 416.916 68.8659 415.79 68.8709C414.49 68.8765 413.364 69.1847 412.414 69.7956C411.55 70.406 410.86 71.3623 410.346 72.6646C409.832 73.9668 409.579 75.658 409.588 77.7379L409.923 154.697L391.073 154.779L390.717 72.8801C390.697 68.3735 391.504 64.5132 393.136 61.2994C394.856 58.0852 397.358 55.6043 400.644 53.8567C404.016 52.1086 408.173 51.2239 413.113 51.2023C416.146 51.1891 418.704 51.568 420.788 52.3389C422.871 53.0232 424.651 53.8821 426.129 54.9157C427.606 55.8626 428.78 56.7675 429.651 57.6304L421.784 72.0948ZM494.52 94.5282L455.905 183.097L436.145 183.183L450.559 149.71L424.45 94.8334L446.03 94.7394L465.609 142.625L455.468 142.539L474.37 94.616L494.52 94.5282ZM494.6 145.488C494.586 142.195 495.744 139.373 498.073 137.023C500.403 134.673 503.301 133.49 506.768 133.475C510.408 133.459 513.36 134.617 515.623 136.947C517.887 139.277 519.026 142.089 519.04 145.382C519.054 148.675 517.94 151.497 515.697 153.847C513.454 156.196 510.512 157.379 506.872 157.395C503.406 157.41 500.497 156.253 498.147 153.923C495.797 151.593 494.615 148.782 494.6 145.488Z" fill="black"/>
<rect x="96.2129" y="170.009" width="249.419" height="7.73917" transform="rotate(0.353059 96.2129 170.009)" fill="black"/>
<rect x="225.022" y="2.18604" width="7.74" height="134.561" transform="rotate(62.3299 225.022 2.18604)" fill="black"/>
<rect x="339.673" y="68.8652" width="7.74" height="132.88" transform="rotate(120.119 339.673 68.8652)" fill="black"/>
<rect x="96.2129" y="170.009" width="249.419" height="7.73917" transform="rotate(0.353059 96.2129 170.009)" fill="black"/>
<rect x="225.022" y="2.18604" width="7.74" height="134.561" transform="rotate(62.3299 225.022 2.18604)" fill="black"/>
<rect x="339.673" y="68.8652" width="7.74" height="132.88" transform="rotate(120.119 339.673 68.8652)" fill="black"/>
</svg>
